<svg xmlns="http://www.w3.org/2000/svg" xmlns:xlink="http://www.w3.org/1999/xlink" class="" app-context="doc-2d" x="0px" y="0px" width="400" height="80" jvs-fullPath="gdrive/dcenatiempo-logo.svg"><title/><desc/><defs/><g transform="matrix(1 0 0 1 0 0)"/><g id="jvs-content" enable-background="new"><g transform="matrix(1,0,0,1,0,0)" name="Layer" jvs-layer-color="#fb0094" class="jvs-layer selected"><a xlink:href="http://dcenatiempo.com"><g transform="matrix(1 0 0 1 -1.4625 -19.9634)" jvs-xlink-href="http://dcenatiempo.com"><path d="M 21.486732482910156 54.61872863769531 Q 21.486732482910156 51.1288948059082 20.225393295288086 48.94694137573242 Q 18.964054107666016 46.764984130859375 16.06368064880371 46.764984130859375 L 15.803574562072754 46.764984130859375 L 15.513775825500488 46.805606842041016 Q 12.497011184692383 46.805606842041016 10.540863990783691 50.71135330200195 Q 8.583529472351074 54.61872863769531 8.583529472351074 61.48139953613281 L 8.583529472351074 63.30592727661133 Q 8.583529472351074 69.45374298095703 10.366271018981934 72.78596496582031 Q 12.14901351928711 76.11820983886719 14.759584426879883 76.11820983886719 L 15.01969051361084 76.11820983886719 Q 18.064960479736328 76.11820983886719 19.746747970581055 73.22138977050781 Q 21.42853546142578 70.3261947631836 21.42853546142578 64.93223571777344 Q 21.486732482910156 64.05978393554688 21.486732482910156 63.66335678100586 L 21.573434829711914 61.162967681884766 L 21.573434829711914 56.64146041870117 L 21.51523780822754 55.41156768798828 Q 21.486732482910156 55.01514434814453 21.486732482910156 54.61872863769531 M 16.46987533569336 41.96565628051758 Q 19.660045623779297 41.96565628051758 20.297842025756836 40.894989013671875 Q 21.28363609313965 39.22969055175781 21.28363609313965 33.79511260986328 Q 21.28363609313965 32.168800354003906 21.022342681884766 30.443382263183594 Q 20.761045455932617 28.71796417236328 20.761045455932617 28.16231918334961 Q 20.761045455932617 26.376792907714844 21.748027801513672 25.148527145385742 Q 22.733821868896484 23.91864013671875 24.61870765686035 23.91864013671875 L 25.168611526489258 23.91864013671875 Q 27.459692001342773 23.91864013671875 27.807687759399414 26.734222412109375 Q 28.06898307800293 28.7569580078125 28.06898307800293 48.98593521118164 L 28.010786056518555 53.74626541137695 L 28.010786056518555 60.3701171875 L 28.06898307800293 64.01915740966797 Q 28.06898307800293 64.93223571777344 28.06898307800293 65.84368133544922 L 28.09748649597168 66.71613311767578 Q 28.127178192138672 67.59022521972656 28.127178192138672 69.86965942382812 Q 28.127178192138672 72.15071868896484 28.604637145996094 74.31317901611328 Q 29.08327865600586 76.47400665283203 29.08327865600586 77.34646606445312 Q 29.08327865600586 78.22055053710938 28.358783721923828 79.05238342285156 Q 27.6342830657959 79.8858413696289 26.228042602539062 79.8858413696289 Q 24.820615768432617 79.8858413696289 23.35736656188965 79.34970092773438 Q 21.892927169799805 78.815185546875 21.341833114624023 78.815185546875 Q 20.79073715209961 78.815185546875 18.34050941467285 79.96546173095703 Q 15.890276908874512 81.11573791503906 14.063589096069336 81.11573791503906 L 13.425793647766113 81.11573791503906 Q 8.495638847351074 81.11573791503906 5.755608558654785 76.53411865234375 Q 3.0155773162841797 71.95249938964844 3.0155773162841797 64.53581237792969 L 3.0155773162841797 62.51307678222656 Q 3.0155773162841797 58.62519836425781 3.9289212226867676 54.71782684326172 Q 4.842264652252197 50.810462951660156 6.582249164581299 47.91526412963867 Q 10.20711898803711 41.96565628051758 16.46987533569336 41.96565628051758 Z M 48.45352554321289 33.993324279785156 Q 42.653968811035156 38.633426666259766 42.653968811035156 53.864871978759766 Q 42.653968811035156 69.13692474365234 49.38111877441406 73.49920654296875 Q 51.46910095214844 74.84769439697266 54.919376373291016 74.84769439697266 Q 58.37084197998047 74.84769439697266 63.328311920166016 70.92082977294922 Q 64.662109375 69.85016632080078 65.56119537353516 69.85016632080078 Q 66.75008392333984 69.85016632080078 66.75008392333984 71.99312591552734 Q 66.75008392333984 73.1434097290039 65.73578643798828 75.06703186035156 Q 64.72030639648438 76.99065399169922 62.98031997680664 78.37814331054688 Q 58.892242431640625 81.63076782226562 53.58559036254883 81.63076782226562 L 52.657989501953125 81.63076782226562 Q 48.91791534423828 81.63076782226562 45.611351013183594 79.68763732910156 Q 39.20369338989258 75.91999816894531 36.88410949707031 65.44725799560547 Q 35.840118408203125 60.68854904174805 35.840118408203125 55.41156768798828 L 35.840118408203125 54.103694915771484 Q 35.840118408203125 48.391300201416016 37.05751419067383 42.83811950683594 Q 39.4352912902832 32.05019760131836 46.307342529296875 27.56768798828125 Q 49.960716247558594 25.226512908935547 54.83267593383789 25.226512908935547 Q 62.69051742553711 25.226512908935547 64.92340087890625 30.344276428222656 Q 65.85099792480469 32.48561477661133 65.85099792480469 34.1119270324707 Q 65.85099792480469 37.56276321411133 64.08250427246094 37.56276321411133 Q 63.53141403198242 37.56276321411133 61.58832550048828 35.73823547363281 Q 59.64643859863281 33.91371536254883 57.6890983581543 33.02176284790039 Q 55.73176574707031 32.12818145751953 53.26728439331055 32.12818145751953 Q 50.801612854003906 32.12818145751953 48.45352554321289 33.993324279785156 Z M 86.6999282836914 57.87134552001953 Q 88.6715087890625 57.87134552001953 89.4839096069336 57.03787612915039 Q 90.29510498046875 56.20603942871094 90.29510498046875 55.135379791259766 L 90.29510498046875 53.46844482421875 Q 90.29510498046875 50.61224365234375 88.75822448730469 48.74873352050781 Q 87.22252655029297 46.88359069824219 85.39464569091797 46.88359069824219 L 84.64163970947266 46.88359069824219 Q 82.0025634765625 46.88359069824219 80.0309829711914 49.91850280761719 Q 78.05939483642578 52.95341491699219 78.05939483642578 56.561851501464844 L 78.05939483642578 57.2360954284668 Q 78.05939483642578 58.62519836425781 79.91458892822266 58.62519836425781 L 80.58207702636719 58.62519836425781 L 80.75547790527344 58.58621597290039 L 82.93016052246094 58.387996673583984 L 84.3803482055664 58.22877502441406 L 85.36614227294922 58.06956100463867 Q 85.62743377685547 58.03056716918945 86.07638549804688 57.95095443725586 Q 86.52651977539062 57.87134552001953 86.6999282836914 57.87134552001953 M 85.51104736328125 81.7493667602539 L 84.23544311523438 81.7493667602539 Q 78.4358901977539 81.7493667602539 74.92741394042969 76.39440155029297 Q 73.36203002929688 74.01586151123047 72.49143981933594 70.34568786621094 Q 71.6220474243164 66.6771469116211 71.6220474243164 63.06709289550781 L 71.6220474243164 61.2831916809082 Q 71.6220474243164 57.67313766479492 72.7230453491211 53.70726776123047 Q 74.84071350097656 45.97214126586914 79.91458892822266 43.19554901123047 Q 82.52396392822266 41.72845458984375 85.45284271240234 41.72845458984375 L 86.09063720703125 41.72845458984375 Q 90.15020751953125 41.72845458984375 92.7892837524414 45.09968948364258 Q 94.29766082763672 47.04281234741211 95.06611633300781 49.7592887878418 Q 95.83336639404297 52.477386474609375 95.83336639404297 54.65934371948242 Q 95.83336639404297 59.45866775512695 93.63017272949219 60.92575454711914 Q 92.1218032836914 61.91682434082031 86.74388122558594 62.789276123046875 Q 81.3647689819336 63.66335678100586 80.8421859741211 63.86156463623047 Q 78.31950378417969 64.73402404785156 78.31950378417969 66.95497131347656 Q 78.31950378417969 70.80223083496094 80.90037536621094 73.380615234375 Q 82.78527069091797 75.28473663330078 86.29373168945312 75.28473663330078 Q 87.62752532958984 75.28473663330078 90.61459350585938 74.13446807861328 Q 93.60166931152344 72.98418426513672 93.89147186279297 72.98418426513672 Q 95.39866638183594 72.98418426513672 95.39866638183594 74.84769439697266 Q 95.39866638183594 77.1888656616211 92.16573333740234 79.46993255615234 Q 88.93281555175781 81.7493667602539 85.51104736328125 81.7493667602539 Z M 105.95378112792969 80.08406066894531 Q 105.92527770996094 80.08406066894531 105.86708068847656 80.08406066894531 Q 102.53201293945312 80.08406066894531 102.53201293945312 76.95004272460938 Q 102.53201293945312 75.44396209716797 103.11161041259766 73.22138977050781 Q 103.69239807128906 71.00043487548828 103.77909088134766 68.7193832397461 Q 103.86579132080078 66.43994903564453 103.86579132080078 61.718605041503906 L 103.86579132080078 54.301910400390625 L 103.92399597167969 52.23855209350586 Q 103.9822006225586 50.17683410644531 103.9822006225586 49.30437088012695 L 103.69239807128906 45.218284606933594 Q 103.69239807128906 43.8307991027832 105.50482940673828 43.8307991027832 Q 107.31608581542969 43.8307991027832 109.23065948486328 45.179290771484375 Q 111.14404296875 46.52777862548828 111.59418487548828 46.52777862548828 Q 112.04312896728516 46.52777862548828 113.30448150634766 45.733306884765625 Q 114.56581115722656 44.940467834472656 116.29154968261719 44.00788879394531 Q 118.0160903930664 43.076942443847656 119.84278106689453 43.076942443847656 L 120.59696960449219 43.076942443847656 Q 122.77165985107422 43.076942443847656 124.46768951416016 44.68213653564453 Q 126.1649169921875 46.28895568847656 126.9333724975586 49.12565994262695 Q 127.7018051147461 51.96073532104492 128.02012634277344 59.53827667236328 L 128.10682678222656 61.718605041503906 L 128.16502380371094 63.90056228637695 Q 128.25172424316406 65.8046875 128.3681182861328 68.02564239501953 Q 128.48451232910156 70.24658203125 129.1508026123047 72.68685913085938 Q 129.81829833984375 75.12552642822266 129.81829833984375 75.958984375 Q 129.81829833984375 79.48942565917969 125.87393951416016 79.48942565917969 Q 124.19214630126953 79.48942565917969 123.4094467163086 78.5568618774414 Q 122.62675476074219 77.62428283691406 122.62675476074219 75.4033432006836 L 122.68495178222656 73.93624877929688 Q 122.68495178222656 58.5066032409668 121.06136322021484 52.91280746459961 Q 119.78457641601562 48.589508056640625 116.56709289550781 48.589508056640625 Q 115.03020477294922 48.589508056640625 113.56576538085938 49.640682220458984 Q 112.10133361816406 50.691856384277344 111.2889404296875 53.033023834228516 Q 109.8387680053711 57.19710922241211 109.8387680053711 69.05731201171875 L 110.07154846191406 76.23680114746094 Q 110.07154846191406 77.94271850585938 108.88265991210938 79.01338958740234 Q 107.69377136230469 80.08406066894531 105.95378112792969 80.08406066894531 Z M 145.4187774658203 76.23680114746094 L 146.31668090820312 76.23680114746094 Q 149.01394653320312 76.23680114746094 151.07223510742188 73.06379699707031 Q 152.2029266357422 71.31725311279297 152.2029266357422 66.55854034423828 L 152.2326202392578 66.0418930053711 L 152.2326202392578 65.05084228515625 Q 152.2326202392578 62.07603454589844 150.4344482421875 62.07603454589844 L 149.50685119628906 62.07603454589844 L 147.9984588623047 62.23525619506836 L 147.21575927734375 62.35386276245117 Q 144.54820251464844 62.35386276245117 142.837890625 64.3960952758789 Q 141.1264190673828 66.43994903564453 141.1264190673828 69.25552368164062 L 141.1264190673828 70.64300537109375 Q 141.1264190673828 72.78596496582031 142.24285888671875 74.51138305664062 Q 143.3592987060547 76.23680114746094 145.4187774658203 76.23680114746094 M 160.0904541015625 78.14093780517578 Q 160.0904541015625 80.79730224609375 156.17579650878906 80.79730224609375 Q 155.4798126220703 80.79730224609375 153.6388702392578 79.82573699951172 Q 151.79791259765625 78.85417938232422 151.31927490234375 78.85417938232422 Q 150.84063720703125 78.85417938232422 148.1730499267578 80.22216033935547 Q 145.50547790527344 81.5917739868164 143.47569274902344 81.5917739868164 L 142.80819702148438 81.5917739868164 Q 139.64772033691406 81.5917739868164 137.3566436767578 78.75507354736328 Q 135.06675720214844 75.91999816894531 135.06675720214844 71.00043487548828 Q 135.06675720214844 61.00536346435547 144.31658935546875 58.545589447021484 Q 150.31924438476562 56.919281005859375 150.52114868164062 56.80067443847656 Q 151.9428253173828 55.80962371826172 151.9428253173828 53.210113525390625 Q 151.9428253173828 50.61224365234375 150.7396697998047 48.84783172607422 Q 149.5353546142578 47.0817985534668 147.4628143310547 47.0817985534668 Q 145.3890838623047 47.0817985534668 142.57659912109375 49.00705337524414 Q 139.7641143798828 50.93067932128906 138.72012329101562 50.93067932128906 Q 136.8352508544922 50.93067932128906 136.8352508544922 47.40024185180664 Q 136.8352508544922 45.179290771484375 139.80686950683594 43.19554901123047 Q 142.77969360351562 41.2118034362793 146.57797241210938 41.2118034362793 L 148.0281524658203 41.2118034362793 Q 150.86915588378906 41.2118034362793 153.07351684570312 42.68052673339844 Q 155.27670288085938 44.147613525390625 156.43710327148438 46.646385192871094 Q 158.08917236328125 50.17683410644531 158.08917236328125 62.789276123046875 Q 158.08917236328125 69.92976379394531 158.30772399902344 71.67469024658203 Q 158.52508544921875 73.41959381103516 159.30776977539062 75.18563842773438 Q 160.0904541015625 76.95004272460938 160.0904541015625 78.14093780517578 Z M 177.74923706054688 81.07511901855469 L 176.64703369140625 81.07511901855469 Q 172.47225952148438 81.07511901855469 170.6455841064453 76.1572036743164 Q 169.13719177246094 72.15071868896484 169.13719177246094 62.989112854003906 Q 169.13719177246094 53.82587432861328 168.41268920898438 50.41403579711914 Q 168.15139770507812 49.14515686035156 166.9625244140625 47.51884078979492 Q 165.77362060546875 45.89253234863281 165.77362060546875 44.70326232910156 L 165.77362060546875 44.18661117553711 Q 165.77362060546875 43.15655517578125 167.13711547851562 41.926673889160156 Q 168.49940490722656 40.696781158447266 168.7167510986328 40.16062927246094 Q 168.93409729003906 39.6261100769043 169.58734130859375 36.313377380371094 Q 170.23939514160156 33.00226593017578 170.94964599609375 31.67327117919922 Q 171.65988159179688 30.344276428222656 172.863037109375 30.344276428222656 Q 174.06736755371094 30.344276428222656 174.5745086669922 31.296344757080078 Q 175.0816650390625 32.248409271240234 175.58880615234375 35.22321319580078 Q 176.0971221923828 38.1980094909668 176.7052459716797 39.24918746948242 Q 177.3145294189453 40.30035400390625 179.663818359375 41.45063400268555 Q 182.01190185546875 42.60091781616211 182.01190185546875 44.30683898925781 Q 182.01190185546875 45.81291961669922 179.56167602539062 47.00381851196289 Q 177.1114501953125 48.193084716796875 176.4736328125 49.9379997253418 Q 175.25624084472656 53.31085205078125 175.25624084472656 61.8778190612793 Q 175.25624084472656 70.4448013305664 176.3287353515625 72.36842346191406 Q 177.4012451171875 74.2936782836914 179.82296752929688 74.72908782958984 Q 182.24351501464844 75.16613006591797 182.24351501464844 77.22785949707031 Q 182.24351501464844 78.815185546875 180.86695861816406 79.94596862792969 Q 179.4892120361328 81.07511901855469 177.74923706054688 81.07511901855469 Z M 193.1466064453125 25.50433349609375 L 194.10389709472656 25.50433349609375 Q 195.3509979248047 25.50433349609375 196.24888610839844 26.5360107421875 Q 197.14797973632812 27.56768798828125 197.14797973632812 29.5498046875 L 197.14797973632812 30.54248809814453 Q 197.14797973632812 32.168800354003906 196.36529541015625 33.457176208496094 Q 195.5825958251953 34.74717712402344 194.364013671875 34.74717712402344 L 193.78440856933594 34.86577606201172 L 192.82830810546875 34.86577606201172 Q 192.48031616210938 34.74717712402344 191.95773315429688 34.74717712402344 Q 191.4363250732422 34.74717712402344 190.72486877441406 33.77561569213867 Q 190.0146484375 32.80242919921875 190.0146484375 31.6131591796875 Q 189.95762634277344 31.296344757080078 189.95762634277344 31.137126922607422 L 189.89942932128906 30.344276428222656 L 189.89942932128906 30.14606475830078 L 190.0146484375 28.875560760498047 Q 190.0146484375 27.964111328125 190.76882934570312 26.734222412109375 Q 191.5230255126953 25.50433349609375 193.1466064453125 25.50433349609375 M 193.6110076904297 81.11573791503906 L 192.13232421875 81.11573791503906 Q 190.9137420654297 81.11573791503906 190.04432678222656 80.1636734008789 Q 189.17373657226562 79.21160888671875 189.17373657226562 78.08082580566406 Q 189.17373657226562 76.95004272460938 189.66664123535156 74.80870056152344 Q 190.1595458984375 72.66737365722656 190.1595458984375 71.00043487548828 L 190.21774291992188 70.0093765258789 L 190.27593994140625 67.94602966308594 L 190.27593994140625 66.31971740722656 L 190.304443359375 65.2490463256836 L 190.304443359375 52.358787536621094 Q 190.18923950195312 50.21582794189453 189.81153869628906 48.74873352050781 L 189.5514373779297 47.994876861572266 Q 188.94215393066406 45.93152618408203 188.94215393066406 45.733306884765625 L 188.94215393066406 44.940467834472656 Q 188.94215393066406 42.63991165161133 192.42210388183594 42.63991165161133 L 193.4661102294922 42.63991165161133 Q 195.5825958251953 42.63991165161133 196.04580688476562 44.90147018432617 Q 196.1621856689453 45.4961051940918 196.1621856689453 51.84213638305664 L 196.1621856689453 60.846153259277344 L 196.22039794921875 63.46514129638672 L 196.3367919921875 66.51792907714844 Q 196.3367919921875 71.23927307128906 197.75726318359375 74.5308837890625 Q 198.33688354492188 75.8793716430664 198.33688354492188 77.52517700195312 Q 198.33688354492188 79.17098999023438 196.97457885742188 80.14417266845703 Q 195.61109924316406 81.11573791503906 193.6110076904297 81.11573791503906 Z M 219.04090881347656 57.87134552001953 Q 221.0124969482422 57.87134552001953 221.8249053955078 57.03787612915039 Q 222.63609313964844 56.20603942871094 222.63609313964844 55.135379791259766 L 222.63609313964844 53.46844482421875 Q 222.63609313964844 50.61224365234375 221.0991973876953 48.74873352050781 Q 219.56231689453125 46.88359069824219 217.73562622070312 46.88359069824219 L 216.98143005371094 46.88359069824219 Q 214.34353637695312 46.88359069824219 212.37196350097656 49.91850280761719 Q 210.39918518066406 52.95341491699219 210.39918518066406 56.561851501464844 L 210.39918518066406 57.2360954284668 Q 210.39918518066406 58.62519836425781 212.2555694580078 58.62519836425781 L 212.92185974121094 58.62519836425781 L 213.09646606445312 58.58621597290039 L 215.27114868164062 58.387996673583984 L 216.72132873535156 58.22877502441406 L 217.70712280273438 58.06956100463867 Q 217.96841430664062 58.03056716918945 218.41737365722656 57.95095443725586 Q 218.86631774902344 57.87134552001953 219.04090881347656 57.87134552001953 M 217.85203552246094 81.7493667602539 L 216.57643127441406 81.7493667602539 Q 210.77687072753906 81.7493667602539 207.26840209960938 76.39440155029297 Q 205.7018280029297 74.01586151123047 204.83241271972656 70.34568786621094 Q 203.96302795410156 66.6771469116211 203.96302795410156 63.06709289550781 L 203.96302795410156 61.2831916809082 Q 203.96302795410156 57.67313766479492 205.06402587890625 53.70726776123047 Q 207.18051147460938 45.97214126586914 212.2555694580078 43.19554901123047 Q 214.8649444580078 41.72845458984375 217.7938232421875 41.72845458984375 L 218.43161010742188 41.72845458984375 Q 222.49118041992188 41.72845458984375 225.1302490234375 45.09968948364258 Q 226.63746643066406 47.04281234741211 227.40589904785156 49.7592887878418 Q 228.17434692382812 52.477386474609375 228.17434692382812 54.65934371948242 Q 228.17434692382812 59.45866775512695 225.97117614746094 60.92575454711914 Q 224.4627685546875 61.91682434082031 219.0836639404297 62.789276123046875 Q 213.7057647705078 63.66335678100586 213.18316650390625 63.86156463623047 Q 210.6604766845703 64.73402404785156 210.6604766845703 66.95497131347656 Q 210.6604766845703 70.80223083496094 213.24136352539062 73.380615234375 Q 215.12625122070312 75.28473663330078 218.6347198486328 75.28473663330078 Q 219.968505859375 75.28473663330078 222.95558166503906 74.13446807861328 Q 225.94146728515625 72.98418426513672 226.23245239257812 72.98418426513672 Q 227.73965454101562 72.98418426513672 227.73965454101562 74.84769439697266 Q 227.73965454101562 77.1888656616211 224.50672912597656 79.46993255615234 Q 221.27378845214844 81.7493667602539 217.85203552246094 81.7493667602539 Z M 241.6001434326172 75.72015380859375 Q 241.6001434326172 79.13199615478516 238.87435913085938 79.13199615478516 Q 235.13427734375 79.13199615478516 235.13427734375 74.21406555175781 L 235.30767822265625 72.8655776977539 L 235.5974884033203 71.55608367919922 L 235.85879516601562 70.20759582519531 Q 236.2649688720703 67.74781799316406 236.2649688720703 63.98017120361328 L 236.35166931152344 52.873809814453125 Q 236.35166931152344 45.93152618408203 236.3801727294922 45.733306884765625 Q 236.6414794921875 44.147613525390625 238.38145446777344 44.147613525390625 L 243.89122009277344 44.940467834472656 Q 244.81881713867188 44.940467834472656 246.80465698242188 44.087501525878906 Q 248.79168701171875 43.23454666137695 251.1397705078125 43.23454666137695 Q 253.48902893066406 43.23454666137695 256.76593017578125 45.77392578125 Q 258.07000732421875 46.764984130859375 258.3016052246094 46.764984130859375 Q 259.37530517578125 46.764984130859375 261.98468017578125 44.821861267089844 Q 264.6237487792969 42.87873458862305 267.00152587890625 42.87873458862305 Q 272.3948974609375 42.87873458862305 274.3367919921875 49.54157257080078 Q 275.3522644042969 52.992408752441406 275.4971618652344 58.9420166015625 L 275.5553894042969 62.274253845214844 Q 275.61358642578125 66.08251953125 275.68603515625 67.70882415771484 Q 275.75848388671875 69.33513641357422 276.3095703125 71.65519714355469 Q 276.8594970703125 73.9752426147461 276.8594970703125 75.44396209716797 Q 276.8594970703125 76.91105651855469 275.931884765625 78.08082580566406 Q 275.0042724609375 79.25059509277344 273.58380126953125 79.25059509277344 Q 271.20599365234375 79.25059509277344 270.82830810546875 77.07026672363281 Q 270.7416076660156 76.63322448730469 270.69769287109375 75.02642059326172 Q 270.6549072265625 73.41959381103516 270.6252136230469 72.8655776977539 L 270.4233093261719 70.12798309326172 Q 269.6109313964844 57.03787612915039 268.97314453125 54.737335205078125 Q 267.7545471191406 50.09722137451172 264.44915771484375 50.09722137451172 Q 261.7815856933594 50.09722137451172 260.7091064453125 53.27022933959961 Q 259.3456115722656 57.276710510253906 259.3456115722656 68.14423370361328 Q 259.3456115722656 69.73155975341797 259.4905090332031 71.15966033935547 L 259.66510009765625 72.5471420288086 Q 259.9833984375 74.84769439697266 259.9833984375 75.28473663330078 Q 259.9833984375 77.3870849609375 258.8099670410156 78.85417938232422 Q 257.63531494140625 80.3212661743164 255.37391662597656 80.3212661743164 Q 253.11135864257812 80.3212661743164 252.54600524902344 79.29122161865234 Q 251.9806671142578 78.25953674316406 251.9806671142578 77.26847839355469 Q 251.9806671142578 76.27579498291016 252.28590393066406 74.19457244873047 Q 252.58995056152344 72.11172485351562 252.63389587402344 71.2587661743164 Q 252.67665100097656 70.40580749511719 252.67665100097656 63.008609771728516 Q 252.67665100097656 55.61140823364258 252.0388641357422 52.992408752441406 Q 251.1397705078125 49.34336471557617 248.5018768310547 49.34336471557617 Q 246.5290985107422 49.34336471557617 244.93521118164062 51.2864875793457 Q 243.34011840820312 53.23124313354492 242.76052856445312 55.41156768798828 Q 241.6001434326172 59.69586944580078 241.6001434326172 75.72015380859375 Z M 303.79779052734375 61.7982177734375 L 303.79779052734375 59.57726287841797 Q 303.79779052734375 53.74626541137695 302.115966796875 50.29542922973633 Q 300.4342041015625 46.8445930480957 297.6502380371094 46.8445930480957 L 297.39013671875 46.8445930480957 L 297.0991516113281 46.88359069824219 Q 295.7950439453125 46.88359069824219 294.3020935058594 47.91526412963867 Q 292.8079833984375 48.94694137573242 291.8221740722656 51.088279724121094 Q 290.8363952636719 53.23124313354492 290.8363952636719 60.846153259277344 L 290.8363952636719 65.3676528930664 Q 290.8363952636719 71.27826690673828 291.67724609375 72.98418426513672 Q 293.0977783203125 75.8793716430664 296.0848388671875 75.8793716430664 L 296.63592529296875 75.8793716430664 Q 299.7381896972656 75.8793716430664 301.76800537109375 72.09223175048828 Q 303.79779052734375 68.30345916748047 303.79779052734375 61.7982177734375 M 286.951416015625 97.77527618408203 Q 283.55810546875 97.77527618408203 283.55810546875 94.44304656982422 Q 283.55810546875 93.37237548828125 283.9928283691406 91.56735229492188 Q 284.4287109375 89.76232147216797 284.5736389160156 88.35372161865234 Q 284.7185363769531 86.94673919677734 284.921630859375 80.22216033935547 Q 285.12353515625 73.49920654296875 285.12353515625 66.83637237548828 L 285.12353515625 54.53911590576172 Q 285.12353515625 50.33442687988281 284.630615234375 48.09397506713867 Q 284.1377258300781 45.85353469848633 284.1377258300781 45.218284606933594 Q 284.1377258300781 43.076942443847656 287.7341003417969 43.076942443847656 Q 288.110595703125 43.076942443847656 289.18310546875 43.35476303100586 L 290.0536804199219 43.63096237182617 Q 291.4456787109375 43.949405670166016 291.99676513671875 43.949405670166016 Q 292.5466613769531 43.949405670166016 294.8959655761719 42.79912567138672 Q 297.2452392578125 41.648841857910156 299.0719299316406 41.648841857910156 L 300.40570068359375 41.648841857910156 Q 302.5221862792969 41.648841857910156 304.4937744140625 43.215049743652344 Q 306.4653625488281 44.781246185302734 307.6542663574219 47.00381851196289 Q 310.1484069824219 51.72352981567383 310.1484069824219 58.347381591796875 L 310.1484069824219 60.331119537353516 Q 310.1484069824219 64.73402404785156 309.0462341308594 68.77949523925781 Q 306.00213623046875 80.00444793701172 296.6062316894531 80.63970184326172 Q 293.93865966796875 80.79730224609375 292.57635498046875 81.86959075927734 Q 291.212890625 82.94026184082031 291.212890625 85.83545684814453 Q 291.212890625 86.86712646484375 291.6190490722656 89.08807373046875 Q 292.0252685546875 91.30902862548828 292.0252685546875 92.37969207763672 Q 292.0252685546875 94.7598648071289 290.59051513671875 96.26756286621094 Q 289.15460205078125 97.77527618408203 286.951416015625 97.77527618408203 Z M 328.038818359375 76.63322448730469 L 328.61956787109375 76.63322448730469 Q 331.5472717285156 76.63322448730469 333.4321594238281 73.102783203125 Q 335.3170471191406 69.57233428955078 335.3170471191406 64.17837524414062 L 335.3752136230469 63.30592727661133 L 335.40374755859375 61.957427978515625 L 335.40374755859375 60.171897888183594 Q 335.40374755859375 54.261287689208984 333.6495361328125 50.43353271484375 Q 331.895263671875 46.607391357421875 328.96759033203125 46.607391357421875 L 328.3868408203125 46.607391357421875 Q 325.51611328125 46.607391357421875 323.5588073730469 50.493648529052734 Q 321.6014709472656 54.38152313232422 321.6014709472656 60.80715560913086 L 321.6014709472656 63.50413513183594 Q 321.65966796875 64.4561996459961 321.65966796875 64.81363677978516 Q 321.65966796875 69.33513641357422 323.4863586425781 72.98418426513672 Q 325.3130187988281 76.63322448730469 328.038818359375 76.63322448730469 M 341.95751953125 60.72754669189453 L 341.95751953125 62.03704071044922 Q 341.95751953125 65.56586456298828 341.1165771484375 69.29451751708984 Q 339.40631103515625 76.87042999267578 334.3894348144531 80.1636734008789 Q 331.4902648925781 82.06781005859375 328.6481018066406 82.06781005859375 L 327.66229248046875 82.06781005859375 Q 324.96502685546875 82.06781005859375 322.6454162597656 80.56009674072266 Q 318.0347900390625 77.544677734375 316.5275573730469 70.56501770019531 Q 315.7152099609375 66.87535858154297 315.7152099609375 63.06709289550781 L 315.7152099609375 61.04436111450195 Q 315.7152099609375 57.315704345703125 316.55609130859375 53.58705139160156 Q 318.2093811035156 46.209346771240234 323.1098327636719 43.03632736206055 Q 325.6325378417969 41.37102508544922 328.2715759277344 41.37102508544922 L 329.7205810546875 41.37102508544922 Q 332.21478271484375 41.37102508544922 334.6507263183594 42.83811950683594 Q 339.5215148925781 45.77392578125 341.2032775878906 53.31085205078125 Q 341.95751953125 56.64146041870117 341.95751953125 60.72754669189453 Z M 348.8592224121094 56.48386001586914 Q 348.8592224121094 51.48469543457031 349.7286376953125 45.377506256103516 Q 351.5553283691406 32.565223693847656 356.74554443359375 24.71148681640625 Q 359.3264465332031 20.784618377685547 360.99395751953125 20.784618377685547 Q 362.6614990234375 20.784618377685547 362.6614990234375 22.570148468017578 Q 362.6614990234375 22.768362045288086 360.0806579589844 28.657848358154297 Q 357.4997863769531 34.5489616394043 356.4272766113281 39.30767059326172 Q 354.5709228515625 47.55783462524414 354.5709228515625 57.513916015625 Q 354.5709228515625 73.1823959350586 358.9499206542969 83.1774673461914 Q 362.05224609375 90.23835754394531 362.05224609375 90.95159149169922 Q 362.05224609375 92.57791137695312 360.312255859375 92.57791137695312 Q 358.572265625 92.57791137695312 356.1077880859375 88.71115112304688 Q 353.6432800292969 84.84439849853516 351.87481689453125 79.44881439208984 Q 348.8592224121094 70.24658203125 348.8592224121094 59.06224060058594 L 348.8592224121094 56.48386001586914 Z M 398.8199462890625 56.52285385131836 Q 398.8199462890625 68.81848907470703 395.3696594238281 79.37083435058594 Q 393.74609375 84.28874969482422 391.0927734375 88.47394561767578 Q 388.4394226074219 92.65750885009766 387.01776123046875 92.65750885009766 L 386.46783447265625 92.65750885009766 Q 385.0176696777344 92.65750885009766 385.0176696777344 91.19042205810547 Q 385.0176696777344 90.07913970947266 387.4678649902344 84.92400360107422 Q 389.9180908203125 79.76725006103516 391.16522216796875 74.6104965209961 Q 393.1070861816406 66.63815307617188 393.1070861816406 56.04682922363281 Q 393.1070861816406 45.45711898803711 391.3100891113281 38.079410552978516 Q 390.2364196777344 33.71549987792969 387.9465026855469 28.47913360595703 Q 385.65545654296875 23.244394302368164 385.65545654296875 22.768362045288086 Q 385.65545654296875 20.823612213134766 387.3954162597656 20.823612213134766 Q 389.13543701171875 20.823612213134766 391.6283874511719 24.870704650878906 Q 396.38397216796875 32.60421371459961 397.97906494140625 43.908782958984375 Q 398.8199462890625 49.9379997253418 398.8199462890625 55.650390625 L 398.8199462890625 56.52285385131836 Z" stroke-width="1.389116718592421" stroke="none" fill="rgb(255, 255, 255)" transform="matrix(1 0 0 1 0 0)" fill-opacity="1"/><title>dcenatiempo.com</title><desc>dcenatiempo.com logo</desc></g></a></g></g></svg>