<svg xmlns="http://www.w3.org/2000/svg" xmlns:xlink="http://www.w3.org/1999/xlink" viewBox="0 0 50 50" class="" app-context="doc-2d" x="0px" y="0px" width="50" height="50"><path id="path198" style="fill-opacity: 1; fill-rule: evenodd;" d="M 0 3.1086244689504383e-15 C 13.36603832244873 1.3322676295501878e-15 24.2030029296875 -10.836967468261719 24.2030029296875 -24.20598030090332 C 24.2030029296875 -34.900291442871094 17.268117904663086 -43.971961975097656 7.649623870849609 -47.174163818359375 C 6.438581466674805 -47.395572662353516 5.997257232666016 -46.64814758300781 5.997257232666016 -46.00621795654297 C 5.997257232666016 -45.43264389038086 6.018060684204102 -43.9095573425293 6.029949188232422 -41.89016342163086 C 12.762746810913086 -43.352325439453125 14.183305740356445 -38.644859313964844 14.183305740356445 -38.644859313964844 C 15.284388542175293 -35.848323822021484 16.87137222290039 -35.1038703918457 16.87137222290039 -35.1038703918457 C 19.069080352783203 -33.60306930541992 16.704946517944336 -33.632789611816406 16.704946517944336 -33.632789611816406 C 14.275434494018555 -33.803672790527344 12.99752426147461 -36.127681732177734 12.99752426147461 -36.127681732177734 C 10.838454246520996 -39.82619094848633 7.331630706787109 -38.75779724121094 5.952680587768555 -38.138160705566406 C 5.732759475708008 -36.574951171875 5.108665466308594 -35.50804138183594 4.416215896606445 -34.90327072143555 C 9.790863990783691 -34.29254150390625 15.441898345947266 -32.21520233154297 15.441898345947266 -22.93995475769043 C 15.441898345947266 -20.297954559326172 14.498324394226074 -18.13739585876465 12.949974060058594 -16.444910049438477 C 13.199613571166992 -15.832700729370117 14.030253410339355 -13.371977806091309 12.713709831237793 -10.039016723632812 C 12.713709831237793 -10.039016723632812 10.680943489074707 -9.388172149658203 6.056694030761719 -12.520535469055176 C 4.126459121704102 -11.982626914978027 2.0550575256347656 -11.715156555175781 -0.002971649169921875 -11.706239700317383 C -2.0580291748046875 -11.715156555175781 -4.129428863525391 -11.982626914978027 -6.062639236450195 -12.520535469055176 C -10.683916091918945 -9.388172149658203 -12.712221145629883 -10.039016723632812 -12.712221145629883 -10.039016723632812 C -14.033224105834961 -13.371977806091309 -13.202581405639648 -15.8326997756958 -12.952943801879883 -16.444908142089844 C -14.504266738891602 -18.137393951416016 -15.441900253295898 -20.29795265197754 -15.441900253295898 -22.93995475769043 C -15.441900253295898 -32.238975524902344 -9.781946182250977 -34.28511047363281 -4.389467239379883 -34.883949279785156 C -5.2587432861328125 -35.63137435913086 -6.032920837402344 -37.108402252197266 -6.032920837402344 -39.36703109741211 C -6.032920837402344 -42.6019287109375 -6.003200531005859 -45.21272277832031 -6.003200531005859 -46.00621795654297 C -6.003200531005859 -46.654083251953125 -6.438581466674805 -47.4074592590332 -7.667455673217773 -47.17119598388672 C -17.27852439880371 -43.96304702758789 -24.207460403442383 -34.89731979370117 -24.207460403442383 -24.205978393554688 C -24.207460403442383 -10.836967468261719 -13.369009017944336 4.6629367034256575e-15 0 3.1086244689504383e-15" stroke="none" transform="matrix(-1 -1.22465e-16 1.22465e-16 -1 25.0699 1.11559)"/></svg>